<?xml version="1.0" encoding="utf-8"?>
<svg width="146.587" height="146.587" viewBox="0 0 146.587 146.587" fill="none" xmlns="http://www.w3.org/2000/svg">
  <g>
    <rect width="146.587" height="146.587" />
    <path id="Shape" d="M53.561 8.17355L8.17355 53.561Q7.68914 54.0454 7.22908 54.553Q6.76903 55.0606 6.33443 55.5901Q5.89983 56.1197 5.49174 56.6699Q5.08365 57.2202 4.70305 57.7898Q4.32245 58.3594 3.97026 58.947Q3.61807 59.5346 3.29514 60.1387Q2.9722 60.7429 2.6793 61.3622Q2.3864 61.9815 2.12424 62.6144Q1.86208 63.2473 1.63129 63.8923Q1.4005 64.5373 1.20163 65.1929Q1.00277 65.8485 0.836316 66.513Q0.66986 67.1775 0.536211 67.8494Q0.402563 68.5213 0.302043 69.199Q0.201524 69.8766 0.134376 70.5584Q0.0672287 71.2401 0.0336143 71.9244Q-1.39508e-07 72.6086 -2.38419e-07 73.2937Q-3.37329e-07 73.9787 0.0336139 74.663Q0.0672281 75.3472 0.134376 76.029Q0.201523 76.7107 0.302042 77.3884Q0.402561 78.066 0.53621 78.7379Q0.669858 79.4098 0.836314 80.0743Q1.00277 80.7389 1.20163 81.3944Q1.40049 82.05 1.63128 82.695Q1.86207 83.34 2.12423 83.9729Q2.3864 84.6058 2.6793 85.2251Q2.9722 85.8444 3.29513 86.4486Q3.61807 87.0527 3.97026 87.6404Q4.32245 88.2279 4.70305 88.7975Q5.08365 89.3672 5.49174 89.9174Q5.89983 90.4677 6.33442 90.9972Q6.76902 91.5268 7.22908 92.0344Q7.68914 92.542 8.17355 93.0264L53.561 138.414Q54.0454 138.898 54.553 139.358Q55.0606 139.818 55.5901 140.253Q56.1197 140.688 56.6699 141.096Q57.2202 141.504 57.7898 141.884Q58.3594 142.265 58.947 142.617Q59.5346 142.969 60.1387 143.292Q60.7429 143.615 61.3622 143.908Q61.9815 144.201 62.6144 144.463Q63.2473 144.725 63.8923 144.956Q64.5373 145.187 65.1929 145.386Q65.8485 145.585 66.513 145.751Q67.1775 145.917 67.8494 146.051Q68.5213 146.185 69.199 146.285Q69.8766 146.386 70.5584 146.453Q71.2401 146.52 71.9244 146.554Q72.6086 146.587 73.2937 146.587Q73.9787 146.587 74.6629 146.554Q75.3472 146.52 76.0289 146.453Q76.7107 146.386 77.3884 146.285Q78.066 146.185 78.7379 146.051Q79.4098 145.917 80.0743 145.751Q80.7388 145.585 81.3944 145.386Q82.05 145.187 82.695 144.956Q83.34 144.725 83.9729 144.463Q84.6058 144.201 85.2251 143.908Q85.8444 143.615 86.4486 143.292Q87.0527 142.969 87.6403 142.617Q88.2279 142.265 88.7975 141.884Q89.3671 141.504 89.9174 141.096Q90.4676 140.688 90.9972 140.253Q91.5268 139.818 92.0344 139.358Q92.5419 138.898 93.0264 138.414L130.27 101.17Q127.34 100.926 125.942 100.926L123.03 100.926Q121.676 100.926 119.462 101.05L119.462 77.3015Q119.462 71.6413 116.96 68.9343Q115.073 66.8835 111.833 66.8835Q107.034 66.8835 103.424 72.4206L103.424 96.3327Q103.424 99.8601 103.589 100.926L93.3757 100.926L93.3757 42.2741L103.424 42.2741L103.424 61.2644Q108.716 57.2448 114.335 57.2448Q121.225 57.2448 125.409 61.7976Q129.51 66.3503 129.51 73.8562L129.51 90.1804Q129.51 97.112 129.716 98.5065Q129.921 99.9011 130.269 100.311Q130.483 100.562 130.658 100.783L138.414 93.0264Q138.898 92.542 139.358 92.0344Q139.818 91.5268 140.253 90.9972Q140.688 90.4677 141.096 89.9174Q141.504 89.3672 141.884 88.7975Q142.265 88.2279 142.617 87.6404Q142.969 87.0527 143.292 86.4486Q143.615 85.8444 143.908 85.2251Q144.201 84.6058 144.463 83.9729Q144.725 83.34 144.956 82.695Q145.187 82.05 145.386 81.3944Q145.585 80.7389 145.751 80.0743Q145.917 79.4098 146.051 78.7379Q146.185 78.066 146.285 77.3884Q146.386 76.7107 146.453 76.029Q146.52 75.3472 146.554 74.663Q146.587 73.9787 146.587 73.2937Q146.587 72.6086 146.554 71.9244Q146.52 71.2401 146.453 70.5584Q146.386 69.8766 146.285 69.199Q146.185 68.5213 146.051 67.8494Q145.917 67.1775 145.751 66.513Q145.585 65.8485 145.386 65.1929Q145.187 64.5374 144.956 63.8923Q144.725 63.2473 144.463 62.6144Q144.201 61.9815 143.908 61.3622Q143.615 60.7429 143.292 60.1388Q142.969 59.5346 142.617 58.947Q142.265 58.3594 141.884 57.7898Q141.504 57.2202 141.096 56.6699Q140.688 56.1197 140.253 55.5901Q139.818 55.0606 139.358 54.553Q138.898 54.0454 138.414 53.561L93.0264 8.17355Q92.542 7.68914 92.0344 7.22908Q91.5268 6.76903 90.9972 6.33443Q90.4677 5.89983 89.9174 5.49174Q89.3672 5.08365 88.7975 4.70305Q88.2279 4.32245 87.6404 3.97026Q87.0527 3.61807 86.4486 3.29514Q85.8444 2.9722 85.2251 2.6793Q84.6058 2.3864 83.9729 2.12424Q83.34 1.86208 82.695 1.63129Q82.05 1.4005 81.3944 1.20163Q80.7389 1.00277 80.0743 0.836316Q79.4098 0.66986 78.7379 0.536211Q78.066 0.402562 77.3884 0.302043Q76.7107 0.201524 76.029 0.134376Q75.3472 0.0672286 74.663 0.0336143Q73.9787 0 73.2937 0Q72.6086 0 71.9244 0.0336143Q71.2401 0.0672286 70.5584 0.134376Q69.8766 0.201524 69.199 0.302043Q68.5213 0.402562 67.8494 0.536211Q67.1775 0.669859 66.513 0.836315Q65.8485 1.00277 65.1929 1.20163Q64.5374 1.4005 63.8923 1.63129Q63.2473 1.86208 62.6144 2.12424Q61.9815 2.3864 61.3622 2.6793Q60.7429 2.9722 60.1388 3.29513Q59.5346 3.61807 58.947 3.97026Q58.3594 4.32245 57.7898 4.70305Q57.2202 5.08365 56.6699 5.49174Q56.1197 5.89983 55.5901 6.33443Q55.0606 6.76902 54.553 7.22908Q54.0454 7.68914 53.561 8.17355ZM69.9557 45.8425Q73.237 40.7155 76.8054 36.819L85.6237 43.7507Q83.86 45.9245 82.3425 48.0163L79.1843 52.487L69.9557 45.8425ZM29.6374 101.952Q22.9929 101.952 17.1276 100.885L17.1276 46.0065Q22.5417 45.3503 29.6989 45.3503Q36.8561 45.3503 42.6598 47.2985Q48.4636 49.2468 52.36 52.8562Q60.235 60.0749 60.235 73.0769Q60.235 87.6374 51.4577 95.1843Q43.5827 101.952 29.6374 101.952ZM27.7917 91.944Q30.4577 92.4362 33.1237 92.4362Q35.7897 92.4362 38.8659 91.3903Q41.9421 90.3444 44.1979 88.1296Q49.0378 83.4538 49.0378 74.5124Q49.0378 59.8288 38.3327 56.4655Q34.8054 55.3581 30.1706 55.3581L29.0632 55.3581Q28.4479 55.3581 27.7917 55.3991L27.7917 91.944ZM80.7429 96.3327Q80.7429 99.8601 80.9069 100.926L70.4889 100.926L70.4889 58.0651L80.7429 58.0651L80.7429 96.3327Z" fill="#09FFAD" fill-rule="evenodd" />
  </g>
</svg>