<?xml version="1.0" encoding="utf-8"?>
<svg width="169.706" height="169.706" viewBox="0 0 169.706 169.706" fill="none" xmlns="http://www.w3.org/2000/svg">
  <defs>
    <linearGradient id="gradient_1" gradientUnits="userSpaceOnUse" x1="60" y1="0" x2="60" y2="120">
      <stop offset="0" stop-color="#09FFAD" />
      <stop offset="0.522" stop-color="#68009C" />
      <stop offset="1" stop-color="#FF315E" />
    </linearGradient>
  </defs>
  <g>
    <rect width="169.706" height="169.706" />
    <path id="Rectangle" d="M92 0C107.466 3.8147e-06 120 12.5339 120 28L120 92C120 107.466 107.466 120 92 120L28 120C12.5339 120 1.14441e-05 107.466 7.62939e-06 92L0 28C7.62939e-06 12.5339 12.5339 0 28 3.8147e-06L92 0Z" fill="url(#gradient_1)" transform="matrix(0.707 -0.707 0.707 0.707 0 84.853)" />
    <path d="M20.3438 76.6582Q13.6992 76.6582 7.83398 75.5918L7.83398 20.7129Q13.248 20.0566 20.4053 20.0566Q27.5625 20.0566 33.3662 22.0049Q39.1699 23.9531 43.0664 27.5625Q50.9414 34.7812 50.9414 47.7832Q50.9414 62.3438 42.1641 69.8906Q34.2891 76.6582 20.3438 76.6582ZM18.498 66.6504Q21.1641 67.1426 23.8301 67.1426Q26.4961 67.1426 29.5723 66.0967Q32.6484 65.0508 34.9043 62.8359Q39.7441 58.1602 39.7441 49.2188Q39.7441 34.5352 29.0391 31.1719Q25.5117 30.0645 20.877 30.0645L19.7695 30.0645Q19.1543 30.0645 18.498 30.1055L18.498 66.6504ZM60.6621 20.5488Q63.9434 15.4219 67.5117 11.5254L76.3301 18.457Q74.5664 20.6309 73.0488 22.7227Q73.0488 22.7227 69.8906 27.1934L60.6621 20.5488ZM71.4492 71.0391Q71.4492 74.5664 71.6133 75.6328L61.1953 75.6328L61.1953 32.7715L71.4492 32.7715L71.4492 71.0391ZM94.1309 71.0391Q94.1309 74.5664 94.2949 75.6328L84.082 75.6328L84.082 16.9805L94.1309 16.9805L94.1309 35.9707Q99.4219 31.9512 105.041 31.9512Q111.932 31.9512 116.115 36.5039Q120.217 41.0566 120.217 48.5625L120.217 64.8867Q120.217 71.8184 120.422 73.2129Q120.627 74.6074 120.976 75.0176Q121.324 75.4277 121.57 75.7559L121.488 75.9199Q118.166 75.6328 116.648 75.6328L113.736 75.6328Q112.383 75.6328 110.168 75.7559L110.168 52.0078Q110.168 46.3477 107.666 43.6406Q105.779 41.5898 102.539 41.5898Q97.7402 41.5898 94.1309 47.127L94.1309 71.0391Z" fill="#FFFFFF" transform="translate(20.853 36.853)" />
  </g>
</svg>