<?xml version="1.0" encoding="utf-8"?>
<svg width="146.512" height="146.512" viewBox="0 0 146.512 146.512" fill="none" xmlns="http://www.w3.org/2000/svg">
  <g>
    <rect width="146.512" height="146.512" />
    <path id="Rectangle Subtract" d="M93.0549 8.20212C82.1188 -2.73404 64.3931 -2.73404 53.457 8.20212L8.20213 53.457C-2.73404 64.3931 -2.73404 82.1188 8.20212 93.0549L53.457 138.31C64.3931 149.246 82.1188 149.246 93.0549 138.31L130.232 101.132Q127.302 100.889 125.904 100.889L122.992 100.889Q121.639 100.889 119.424 101.012L119.424 77.2638Q119.424 71.6036 116.922 68.8966Q115.035 66.8458 111.795 66.8458Q106.996 66.8458 103.387 72.3829L103.387 96.295Q103.387 99.8223 103.551 100.889L93.338 100.889L93.338 42.2364L103.387 42.2364L103.387 61.2266Q108.678 57.2071 114.297 57.2071Q121.188 57.2071 125.371 61.7598Q129.473 66.3126 129.473 73.8184L129.473 90.1427Q129.473 97.0743 129.678 98.4688Q129.883 99.8634 130.232 100.274Q130.445 100.525 130.62 100.745L138.31 93.0549C149.246 82.1188 149.246 64.3931 138.31 53.457L93.0549 8.20212ZM69.918 45.8048Q73.1993 40.6778 76.7676 36.7813L85.586 43.713Q83.8223 45.8868 82.3047 47.9786L79.1465 52.4493L69.918 45.8048ZM29.5997 101.914Q22.9551 101.914 17.0899 100.848L17.0899 45.9688Q22.504 45.3126 29.6612 45.3126Q36.8184 45.3126 42.6221 47.2608Q48.4258 49.2091 52.3223 52.8184Q60.1973 60.0372 60.1973 73.0391Q60.1973 87.5997 51.42 95.1466Q43.545 101.914 29.5997 101.914ZM27.754 91.9063Q30.42 92.3985 33.086 92.3985Q35.752 92.3985 38.8282 91.3526Q41.9044 90.3067 44.1602 88.0919Q49.0001 83.4161 49.0001 74.4747Q49.0001 59.7911 38.295 56.4278Q34.7676 55.3204 30.1329 55.3204L29.0254 55.3204Q28.4102 55.3204 27.754 55.3614L27.754 91.9063ZM80.7051 96.295Q80.7051 99.8223 80.8692 100.889L70.4512 100.889L70.4512 58.0274L80.7051 58.0274L80.7051 96.295Z" fill="#FF315E" fill-rule="evenodd" />
  </g>
</svg>